# xmcd
# Track frame offsets:
# 150
# 22746
# 40278
# 62239
# 77206
# 92352
# 112423
# 125069
# 141869
# 159261
# 176863
# 195186
# 214385
# 232913
# 246866
#
# Disc length: 3593 seconds
# Revision: 0
# Processed by: cddbd v1.5.1PL0 Copyright (c) Steve Scherf et al.
# Submitted via: VisiTrax 2.9.10.228 - For more info visit www.synapsa.com
#
DISCID=cd0e070f
DTITLE=Various Artist - CB60314
DYEAR=1900
DGENRE=Karaoke
TTITLE0=Montgomery Gentry - Hell Yeah
TTITLE1=Clark, Terri - Pain To Kill
TTITLE2=Shelton, Blake - Playboys Of The Southwestern World
TTITLE3=Trick Pony - I'm Not Thinking Straight Anymore
TTITLE4=Diamond Rio - Wrinkles
TTITLE5=Carter, Deana - Wildflower
TTITLE6=King, Jill - Hand Me Down Heartache
TTITLE7=Paisley, Brad - Mud On The Tires
TTITLE8=Paige, Allison - Where My Heart Lets Go
TTITLE9=Howard, Rebecca Lynn - What A Shame
TTITLE10=Morgan, Craig - Every Friday Afternoon
TTITLE11=Tyler, Ryan - Run, Run, Run
TTITLE12=Cash, Rosanne - Rules Of Travel
TTITLE13=Ennis Sisters - It's Not About You
TTITLE14=Emerick, Scotty and Toby - I Can't Take You Anywhere
EXTD=
EXTT0=
EXTT1=
EXTT2=
EXTT3=
EXTT4=
EXTT5=
EXTT6=
EXTT7=
EXTT8=
EXTT9=
EXTT10=
EXTT11=
EXTT12=
EXTT13=
EXTT14=
PLAYORDER=
